<svg xmlns="http://www.w3.org/2000/svg" width="16.222" height="16.222" viewBox="0 0 16.222 16.222"><defs><style>.a{fill:none;}</style></defs><g transform="translate(0)"><path class="a" d="M0,0H16.222V16.222H0Z"/><path d="M1,7.525,2.352,8.877a8.6,8.6,0,0,1,12.167,0L15.87,7.525A10.521,10.521,0,0,0,1,7.525Zm5.407,5.407L8.435,14.96l2.028-2.028A2.864,2.864,0,0,0,6.407,12.932Zm-2.7-2.7L5.056,11.58a4.781,4.781,0,0,1,6.759,0l1.352-1.352A6.7,6.7,0,0,0,3.7,10.228Z" transform="translate(-0.324 -1.441)"/></g></svg>